<svg height="512pt" viewBox="0 0 512 512" width="512pt" xmlns="http://www.w3.org/2000/svg"><path d="m502 133v349c0 11.050781-8.949219 20-20 20h-452c-11.050781 0-20-8.949219-20-20v-349zm0 0" fill="#fff"/><path d="m482 10h-319c-11.050781 0-20 8.949219-20 20v103h359v-103c0-11.050781-8.949219-20-20-20zm0 0" fill="#fd3c65"/><path d="m190 206c-5.519531 0-10 4.480469-10 10s4.480469 10 10 10 10-4.480469 10-10-4.480469-10-10-10zm0 0"/><path d="m190 306c-5.519531 0-10 4.480469-10 10s4.480469 10 10 10 10-4.480469 10-10-4.480469-10-10-10zm0 0"/><path d="m190 409c-5.519531 0-10 4.480469-10 10s4.480469 10 10 10 10-4.480469 10-10-4.480469-10-10-10zm0 0"/><path d="m482 0h-452c-16.542969 0-30 13.457031-30 30v452c0 16.542969 13.457031 30 30 30h452c16.542969 0 30-13.457031 30-30v-452c0-16.542969-13.457031-30-30-30zm-452 20h452c5.515625 0 10 4.484375 10 10v93h-472v-93c0-5.515625 4.484375-10 10-10zm452 472h-452c-5.515625 0-10-4.484375-10-10v-339h472v339c0 5.515625-4.484375 10-10 10zm0 0"/><path d="m122.929688 188.929688-32.929688 32.929687-12.929688-12.929687c-3.90625-3.90625-10.234374-3.90625-14.140624 0s-3.90625 10.234374 0 14.140624l20 20c1.953124 1.953126 4.511718 2.929688 7.070312 2.929688s5.117188-.976562 7.070312-2.929688l40-40c3.90625-3.90625 3.90625-10.234374 0-14.140624s-10.234374-3.90625-14.140624 0zm0 0"/><path d="m122.929688 288.929688-32.929688 32.929687-12.929688-12.929687c-3.90625-3.90625-10.234374-3.90625-14.140624 0s-3.90625 10.234374 0 14.140624l20 20c1.953124 1.953126 4.511718 2.929688 7.070312 2.929688s5.117188-.976562 7.070312-2.929688l40-40c3.90625-3.90625 3.90625-10.234374 0-14.140624s-10.234374-3.90625-14.140624 0zm0 0"/><path d="m442 206h-212c-5.523438 0-10 4.476562-10 10s4.476562 10 10 10h212c5.523438 0 10-4.476562 10-10s-4.476562-10-10-10zm0 0"/><path d="m442 306h-212c-5.523438 0-10 4.476562-10 10s4.476562 10 10 10h212c5.523438 0 10-4.476562 10-10s-4.476562-10-10-10zm0 0"/><path d="m442 409h-212c-5.523438 0-10 4.476562-10 10s4.476562 10 10 10h212c5.523438 0 10-4.476562 10-10s-4.476562-10-10-10zm0 0"/><path d="m127.070312 391.929688c-3.90625-3.90625-10.234374-3.90625-14.140624 0l-12.929688 12.925781-12.929688-12.925781c-3.90625-3.90625-10.234374-3.90625-14.140624 0-3.90625 3.902343-3.90625 10.234374 0 14.140624l12.925781 12.929688-12.925781 12.929688c-3.90625 3.90625-3.90625 10.234374 0 14.140624 1.953124 1.953126 4.511718 2.929688 7.070312 2.929688s5.117188-.976562 7.070312-2.929688l12.929688-12.925781 12.929688 12.925781c1.953124 1.953126 4.511718 2.929688 7.070312 2.929688s5.117188-.976562 7.070312-2.929688c3.90625-3.90625 3.90625-10.234374 0-14.140624l-12.925781-12.929688 12.925781-12.929688c3.90625-3.90625 3.90625-10.234374 0-14.140624zm0 0"/><path d="m70 80h20c5.523438 0 10-4.476562 10-10s-4.476562-10-10-10h-20c-5.523438 0-10 4.476562-10 10s4.476562 10 10 10zm0 0"/><path d="m130 80h20c5.523438 0 10-4.476562 10-10s-4.476562-10-10-10h-20c-5.523438 0-10 4.476562-10 10s4.476562 10 10 10zm0 0"/><path d="m190 80h20c5.523438 0 10-4.476562 10-10s-4.476562-10-10-10h-20c-5.523438 0-10 4.476562-10 10s4.476562 10 10 10zm0 0"/></svg>