<?xml version="1.0" encoding="iso-8859-1"?>
<!-- Generator: Adobe Illustrator 16.0.0, SVG Export Plug-In . SVG Version: 6.00 Build 0)  -->
<!DOCTYPE svg PUBLIC "-//W3C//DTD SVG 1.1//EN" "http://www.w3.org/Graphics/SVG/1.1/DTD/svg11.dtd">
<svg version="1.1" id="Capa_1" xmlns="http://www.w3.org/2000/svg" xmlns:xlink="http://www.w3.org/1999/xlink" x="0px" y="0px"
	 width="201.917px" height="201.917px" viewBox="0 0 201.917 201.917" style="enable-background:new 0 0 201.917 201.917;"
	 xml:space="preserve">
<g>
	<path d="M104.809,175.836c0-2.052,1.65-3.708,3.702-3.708h12.732c5.353,3.593,11.399,6.083,17.823,7.246
		c-0.269,0.062-0.512,0.158-0.792,0.158h-29.764C106.459,179.539,104.809,177.876,104.809,175.836z M95.76,146.2h6.597
		c-0.7-2.436-1.212-4.901-1.504-7.41H95.76c-2.046,0-3.706,1.662-3.706,3.708S93.714,146.2,95.76,146.2z M68.499,52.632
		c-4.545-3.054-7.675-9.104-7.675-14.541c0-7.676,6.217-13.905,13.898-13.905c7.681,0,13.898,6.229,13.898,13.905
		c0,5.438-3.136,11.487-7.688,14.541c10.894,2.761,18.961,12.227,18.961,19.229c0,8.281-50.339,8.281-50.339,0
		C49.55,64.858,57.624,55.399,68.499,52.632z M67.659,71.027l7.057,7.045l7.063-7.045l-5.94-14.355h0.055l2.308-2.637
		c-1.124,0.393-2.265,0.636-3.486,0.636c-1.208,0-2.362-0.244-3.486-0.648l2.302,2.649h0.061L67.659,71.027z M160.688,193.836
		l0.013-0.012l-0.177-0.311c-0.092,0-0.171,0.023-0.256,0.023H31.249c-6.67,0-12.096-5.425-12.096-12.093V20.152
		c0-6.665,5.426-12.09,12.096-12.09h129.02c6.668,0,12.093,5.425,12.093,12.09v73.822c2.893,1.827,5.627,3.903,8.068,6.333V20.152
		C180.43,9.036,171.388,0,160.269,0H31.249C20.127,0,11.084,9.036,11.084,20.152v161.292c0,11.112,9.042,20.149,20.164,20.149
		h129.02c1.571,0,3.094-0.226,4.573-0.572L160.688,193.836z M53.249,129.315h47.511c0.225-2.479,0.636-4.95,1.26-7.411H53.255
		c-2.046,0-3.699,1.656-3.699,3.703C49.55,127.665,51.203,129.315,53.249,129.315z M53.249,95.551h66.576
		c1.315-0.956,2.686-1.86,4.116-2.688c3.63-2.095,7.526-3.672,11.552-4.728H53.249c-2.046,0-3.699,1.66-3.699,3.711
		S51.203,95.551,53.249,95.551z M53.249,112.43h52.266c1.304-2.618,2.838-5.096,4.592-7.41H53.249c-2.046,0-3.699,1.662-3.699,3.708
		S51.203,112.43,53.249,112.43z M179.803,114.684c10.327,17.89,4.177,40.857-13.725,51.173
		c-17.884,10.321-40.847,4.201-51.174-13.713c-10.333-17.884-4.177-40.847,13.701-51.176
		C146.507,90.637,169.476,96.784,179.803,114.684z M174.438,117.789c-8.629-14.931-27.791-20.064-42.716-11.461
		c-14.937,8.635-20.082,27.773-11.436,42.723c8.61,14.93,27.767,20.075,42.703,11.453
		C177.921,151.863,183.048,132.719,174.438,117.789z M175.504,163.555l-16.106,9.305l12.404,21.47l16.1-9.292L175.504,163.555z
		 M189.582,187.96l-16.118,9.298c2.582,4.464,8.27,5.974,12.714,3.416C190.629,198.104,192.157,192.405,189.582,187.96z"/>
</g>
<g>
</g>
<g>
</g>
<g>
</g>
<g>
</g>
<g>
</g>
<g>
</g>
<g>
</g>
<g>
</g>
<g>
</g>
<g>
</g>
<g>
</g>
<g>
</g>
<g>
</g>
<g>
</g>
<g>
</g>
</svg>
