<svg id="Capa_1" enable-background="new 0 0 512 512" height="512" viewBox="0 0 512 512" width="512" xmlns="http://www.w3.org/2000/svg"><g><path d="m108.369 174.341c6.893-10.923 14.993-21.069 24.25-30.326 16.015-16.015 34.672-28.592 55.453-37.382 21.531-9.107 44.385-13.724 67.927-13.724s46.396 4.618 67.927 13.724c20.781 8.79 39.439 21.367 55.453 37.382 9.257 9.257 17.358 19.403 24.25 30.326h108.371v-67.442c0-58.945-47.954-106.899-106.898-106.899h-298.204c-58.944 0-106.898 47.954-106.898 106.898v67.442h108.369zm331.778-72.194h-30v-30h30z"/><path d="m418.728 204.341c7.8 20.095 11.758 41.279 11.758 63.055 0 23.542-4.617 46.396-13.724 67.927-8.79 20.781-21.367 39.439-37.382 55.453-16.015 16.015-34.672 28.592-55.453 37.382-21.531 9.107-44.385 13.724-67.927 13.724s-46.396-4.618-67.927-13.724c-20.781-8.79-39.439-21.367-55.453-37.382-16.015-16.015-28.592-34.672-37.382-55.453-9.107-21.531-13.724-44.385-13.724-67.927 0-21.775 3.959-42.96 11.758-63.055h-93.272v200.761c0 58.944 47.954 106.898 106.898 106.898h298.203c58.945 0 106.899-47.954 106.899-106.898v-200.761z"/><path d="m256 206.277c-33.7 0-61.118 27.418-61.118 61.118s27.418 61.118 61.118 61.118 61.118-27.417 61.118-61.117-27.418-61.119-61.118-61.119z"/><path d="m256 122.909c-79.798 0-144.486 64.689-144.486 144.486s64.688 144.487 144.486 144.487 144.486-64.689 144.486-144.486-64.688-144.487-144.486-144.487zm91.118 144.487c0 50.242-40.875 91.117-91.118 91.117s-91.118-40.875-91.118-91.117c0-50.243 40.875-91.118 91.118-91.118s91.118 40.874 91.118 91.118z"/></g></svg>